<svg width="341" height="341" viewBox="0 0 341 341" fill="none" xmlns="http://www.w3.org/2000/svg">
<circle cx="170.5" cy="170.5" r="170.5" fill="#FFCA26" fill-opacity="0.46"/>
<path d="M236.159 170.367H212.288C200.797 170.367 191.448 179.719 191.448 191.213V215.445C191.448 216.939 192.657 218.15 194.152 218.15H254.296C255.789 218.15 257 216.94 257 215.445L256.999 191.213C256.999 179.719 247.65 170.367 236.158 170.367H236.159ZM251.593 212.741H242.249V194.567C242.249 193.074 241.04 191.863 239.545 191.863C238.051 191.863 236.842 193.073 236.842 194.567V212.741H211.605V194.567C211.605 193.074 210.396 191.863 208.902 191.863C207.409 191.863 206.198 193.073 206.198 194.567V212.741H196.854V191.211C196.854 182.697 203.779 175.772 212.288 175.772H236.159C244.671 175.772 251.593 182.697 251.593 191.211L251.593 212.741ZM208.903 149.54C208.903 159.94 215.705 168.403 224.067 168.403C232.427 168.403 239.231 159.94 239.231 149.54C239.231 139.72 233.433 133.372 224.46 133.372C215.299 133.372 208.902 140.02 208.902 149.54H208.903ZM224.458 138.779C230.41 138.779 233.822 142.701 233.822 149.537C233.822 156.956 229.447 162.991 224.066 162.991C218.685 162.991 214.309 156.955 214.309 149.537C214.31 141.605 219.552 138.779 224.458 138.779ZM181.989 218.15C183.482 218.15 184.693 216.94 184.693 215.445V177.053C184.693 159.712 170.59 145.605 153.255 145.605H115.438C98.1028 145.605 84 159.712 84 177.053V215.445C84 216.939 85.2095 218.15 86.7037 218.15H181.989ZM89.4083 177.055C89.4083 162.696 101.085 151.016 115.438 151.016H153.255C167.609 151.016 179.286 162.696 179.286 177.055V212.741H161.324V182.37C161.324 180.876 160.114 179.665 158.62 179.665C157.127 179.665 155.916 180.875 155.916 182.37V212.741H112.779V182.37C112.779 180.876 111.569 179.665 110.075 179.665C108.581 179.665 107.371 180.875 107.371 182.37V212.741H89.4093L89.4083 177.055ZM134.098 139.339C146.472 139.339 156.541 126.641 156.541 111.033C156.541 96.4339 147.976 87 134.719 87C123.237 87 111.655 94.4312 111.655 111.033C111.655 126.641 121.724 139.339 134.098 139.339H134.098ZM134.72 92.4063C144.999 92.4063 151.136 99.3703 151.136 111.033C151.136 123.659 143.495 133.93 134.098 133.93C124.704 133.93 117.062 123.659 117.062 111.033C117.062 97.2841 126.574 92.4063 134.72 92.4063ZM160.293 115.197C160.469 116.679 161.819 117.731 163.297 117.563C172.646 116.448 182.099 117.585 190.853 120.825L187.88 125.132C187.333 125.926 187.249 126.954 187.663 127.827C188.077 128.699 188.926 129.285 189.888 129.363L217.401 131.58C217.475 131.586 217.547 131.589 217.619 131.589C218.501 131.589 219.336 131.156 219.844 130.42C220.391 129.626 220.475 128.598 220.061 127.725L208.226 102.783C207.812 101.911 206.964 101.325 206.001 101.247C205.047 101.168 204.107 101.61 203.56 102.407L199.31 108.567C187.823 103.642 175.216 101.73 162.7 103.031C161.214 103.185 160.135 104.515 160.291 106C160.291 106.009 160.295 106.015 160.295 106.023C160.259 106.197 160.241 106.377 160.241 106.565V113.778C160.241 114.001 160.275 114.214 160.328 114.422C160.281 114.676 160.26 114.933 160.293 115.197ZM198.602 114.185C198.628 114.205 198.647 114.228 198.672 114.246C199.581 114.876 200.737 114.867 201.623 114.321C202.1 114.055 202.508 113.653 202.756 113.12C202.766 113.096 202.77 113.073 202.779 113.05L205.343 109.333L213.164 125.811L194.985 124.346L197.012 121.405C197.211 121.188 197.388 120.946 197.512 120.659C198.11 119.291 197.486 117.698 196.116 117.1C186.552 112.923 176.075 111.172 165.641 111.932V108.239C176.977 107.462 188.306 109.486 198.602 114.185ZM226.082 225.646C226.124 225.566 226.162 225.484 226.194 225.4C226.226 225.314 226.25 225.229 226.273 225.142C226.295 225.06 226.316 224.98 226.331 224.895C226.348 224.798 226.354 224.701 226.36 224.603C226.364 224.547 226.377 224.496 226.377 224.437C226.377 224.411 226.372 224.387 226.372 224.364C226.37 224.265 226.354 224.168 226.342 224.072C226.332 223.989 226.323 223.91 226.306 223.831C226.286 223.744 226.256 223.66 226.226 223.577C226.198 223.495 226.175 223.411 226.138 223.332C226.104 223.254 226.059 223.182 226.018 223.108C225.972 223.029 225.93 222.95 225.878 222.876C225.831 222.812 225.777 222.752 225.724 222.69C225.66 222.615 225.598 222.542 225.526 222.473C225.507 222.455 225.494 222.434 225.476 222.418C225.434 222.38 225.387 222.357 225.341 222.321C225.263 222.261 225.187 222.201 225.103 222.15C225.033 222.104 224.96 222.067 224.885 222.032C224.802 221.991 224.722 221.95 224.634 221.918C224.551 221.888 224.468 221.863 224.384 221.84C224.298 221.816 224.214 221.794 224.126 221.78C224.033 221.765 223.944 221.758 223.848 221.752C223.788 221.747 223.732 221.734 223.672 221.734H210.658C210.021 221.734 209.402 221.96 208.915 222.371C192.835 235.949 171.075 239.911 151.393 233.085L154.265 228.717C154.795 227.91 154.855 226.88 154.422 226.017C153.989 225.154 153.128 224.587 152.163 224.531L124.611 222.922C123.647 222.852 122.726 223.327 122.195 224.136C121.665 224.944 121.605 225.973 122.038 226.836L134.42 251.51C134.853 252.373 135.715 252.94 136.679 252.996C136.734 253 136.785 253 136.838 253C137.744 253 138.595 252.545 139.094 251.783L143.219 245.513C152.18 249.129 161.529 250.909 170.793 250.909C191.302 250.909 211.361 242.302 225.689 226.24C225.727 226.198 225.75 226.151 225.787 226.105C225.847 226.027 225.907 225.952 225.959 225.869C226.006 225.797 226.045 225.723 226.083 225.645L226.082 225.646ZM143.813 239.919C143.779 239.895 143.753 239.863 143.716 239.841C142.89 239.298 141.88 239.276 141.052 239.678C140.453 239.939 139.942 240.411 139.659 241.057C139.649 241.08 139.646 241.104 139.635 241.127L137.153 244.899L128.973 228.597L147.177 229.659L145.216 232.639C145.021 232.861 144.849 233.109 144.73 233.397C144.163 234.778 144.822 236.358 146.204 236.924C154.159 240.191 162.492 241.788 170.766 241.788C185.416 241.788 199.867 236.775 211.634 227.139H217.237C197.561 245.523 168.888 250.693 143.813 239.919Z" fill="black"/>
</svg>
