<svg width="341" height="341" viewBox="0 0 341 341" fill="none" xmlns="http://www.w3.org/2000/svg">
<circle cx="170.5" cy="170.5" r="170.5" fill="#33CCFF" fill-opacity="0.35"/>
<path d="M135 175C144.807 175 152 163.965 152 154.877C152 145.465 144.154 138 135 138C125.52 138 118 145.789 118 154.877C118 163.965 125.52 175 135 175ZM135 144.167C140.885 144.167 145.462 149.035 145.462 154.553C145.462 160.72 140.558 168.185 135 168.185C129.442 168.185 124.538 160.396 124.538 154.553C124.538 148.711 129.115 144.167 135 144.167Z" fill="black"/>
<path d="M272.718 230.593H259.594L259.592 136.266C259.592 122.836 248.764 112.028 235.311 112.028H234.326L234.327 79.2751C234.327 77.3104 233.014 76 231.046 76H149.015C147.047 76 145.734 77.3103 145.734 79.2751V111.701H106.687C93.2337 111.701 82.4055 122.509 82.4055 135.938V230.266H69.2811C67.3128 230.266 66 231.576 66 233.541V245.66C66 246.643 66.3278 247.624 67.3127 248.28L85.688 263.346C86.3436 263.673 87.0008 264 87.6564 264H254.344C255.984 264 273.704 249.589 275.015 247.952C275.671 247.297 276 246.641 276 245.66V233.541C276 231.903 274.687 230.593 272.719 230.593L272.718 230.593ZM151.969 82.5474H227.437V125.125H215.296C214.641 125.125 213.656 125.452 213 126.108L199.876 137.9V128.402C199.876 126.437 198.563 125.127 196.595 125.127L151.967 125.125L151.969 82.5474ZM88.9688 136.262C88.9688 126.436 96.8436 118.576 106.687 118.576H145.405V128.73C145.405 130.695 146.718 132.005 148.686 132.005H193.638V145.434C193.638 146.745 194.294 148.055 195.607 148.382C196.919 149.037 198.232 148.71 199.215 147.728L216.933 131.68H231.042C233.011 131.68 234.323 130.369 234.323 128.405V118.25H235.308C245.152 118.25 253.026 126.111 253.026 135.936V230.263L199.218 230.262C198.233 230.262 197.578 230.589 196.922 231.245C195.937 232.228 197.25 230.918 187.407 240.743H154.593L145.078 231.245C144.422 230.591 143.765 230.262 142.782 230.262H88.9698L88.9688 136.262ZM269.439 244.347C263.533 249.915 259.266 251.224 253.032 257.447L88.9704 257.449L72.5634 244.02V236.814H141.469L150.984 246.312C151.64 246.966 152.297 247.295 153.28 247.295H188.718C189.703 247.295 190.359 246.967 191.014 246.312C199.546 237.795 200.202 237.141 200.529 236.814H269.435L269.439 244.347Z" fill="black"/>
<path d="M169 213.699V196.865C169 184.322 157.23 180.031 144.807 178.051C143.173 177.721 141.538 179.042 141.211 180.692C140.23 185.643 138.269 190.264 135 194.226C131.731 190.264 129.77 185.643 128.789 180.692C128.462 179.042 126.827 177.721 125.193 178.051C112.77 180.031 101 184.322 101 196.865V213.699C101 215.679 102.308 217 104.269 217H166.056C167.364 217.002 168.999 215.35 168.999 213.699H169ZM162.462 210.399H107.213V196.865C107.213 188.943 115.059 186.632 122.905 184.982C124.54 191.253 127.809 196.534 132.386 201.155C133.694 202.475 135.655 202.475 136.963 201.155C141.54 196.534 144.809 190.922 146.443 184.982C154.289 186.632 162.135 188.612 162.135 196.865V210.399H162.462Z" fill="black"/>
<path d="M189.254 214H237.746C239.698 214 241 212.6 241 210.5C241 208.4 239.698 207 237.746 207H189.254C187.302 207 186 208.4 186 210.5C186 212.25 187.3 214 189.254 214Z" fill="black"/>
<path d="M189.254 197H237.746C239.698 197 241 195.6 241 193.5C241 191.4 239.698 190 237.746 190H189.254C187.302 190 186 191.4 186 193.5C186 195.25 187.3 197 189.254 197Z" fill="black"/>
<path d="M189.254 179H237.746C239.698 179 241 177.6 241 175.501C241 173.402 239.698 172.002 237.746 172.002L189.254 172C187.302 172 186 173.4 186 175.499C186 177.249 187.3 179 189.254 179Z" fill="black"/>
<path d="M163.278 98H215.722C217.689 98 219 96.5997 219 94.5C219 92.4003 217.689 91 215.722 91H163.278C161.311 91 160 92.4003 160 94.5C160 96.25 161.639 98 163.278 98Z" fill="black"/>
<path d="M163.256 114H170.744C172.697 114 174 112.6 174 110.5C174 108.4 172.697 107 170.744 107H163.256C161.303 107 160 108.4 160 110.5C160 112.25 161.628 114 163.256 114Z" fill="black"/>
<path d="M193.744 107H186.256C184.303 107 183 108.4 183 110.5C183 112.6 184.303 114 186.256 114H193.744C195.697 114 197 112.6 197 110.5C197 108.4 195.372 107 193.744 107Z" fill="black"/>
<path d="M215.744 107H208.256C206.303 107 205 108.4 205 110.5C205 112.6 206.303 114 208.256 114H215.744C217.697 114 219 112.6 219 110.5C219 108.4 217.697 107 215.744 107Z" fill="black"/>
</svg>
