<svg width="341" height="341" viewBox="0 0 341 341" fill="none" xmlns="http://www.w3.org/2000/svg">
<circle cx="170.5" cy="170.5" r="170.5" fill="#FF6947" fill-opacity="0.56"/>
<path d="M197.329 148.615C196.059 142.225 191.608 136.888 185.717 134.689C184.411 134.202 182.977 134.291 181.676 134.94C181.275 135.14 180.798 135.32 180.285 135.488V132.347C183.389 130.23 185.925 126.975 187.638 123.254C187.789 123.288 187.935 123.34 188.09 123.36C188.31 123.388 188.529 123.402 188.748 123.402C191.525 123.402 194.035 121.134 194.511 118.06C194.768 116.395 194.377 114.72 193.455 113.429C193.646 112.087 193.716 110.743 193.73 109.457C194.09 109.151 194.532 108.619 194.532 107.783C194.532 107.36 194.419 107.015 194.258 106.736C194.418 106.457 194.532 106.11 194.532 105.684C194.532 102.198 192.845 99.3183 190.966 96.4311C189.472 94.1363 187.424 90.9925 184.169 89.3173C181.266 87.8229 177.915 87.798 174.663 87.798L170.841 87.0331C170.733 87.0106 170.619 87 170.509 87C167.068 87 164.125 88.5181 161.527 89.8576L161.202 90.0243C158.56 91.3863 155.271 93.0794 153.373 95.995C151.562 98.7757 151.301 102.085 151.274 105.056C150.916 105.362 150.475 105.893 150.475 106.729C150.475 107.152 150.588 107.498 150.749 107.778C150.589 108.056 150.475 108.403 150.475 108.829C150.475 110.537 150.858 112.133 151.429 113.632C150.605 114.895 150.25 116.478 150.496 118.059C150.972 121.134 153.483 123.402 156.258 123.402C156.477 123.402 156.697 123.387 156.918 123.359C157.073 123.339 157.218 123.287 157.368 123.253C159.081 126.976 161.618 130.231 164.722 132.347V135.488C164.208 135.32 163.73 135.141 163.328 134.941C162.025 134.291 160.593 134.201 159.289 134.689C153.394 136.888 148.944 142.227 147.652 148.759L144.024 180.022C143.968 180.502 144.12 180.983 144.442 181.345C144.565 181.483 144.723 181.576 144.88 181.666L144.773 182.566C144.573 184.221 145.094 185.888 146.202 187.136C147.309 188.384 148.9 189.101 150.569 189.101H153.087V233.09C153.087 233.741 153.201 234.36 153.384 234.937C150.458 236.25 148.408 239.185 148.408 242.619C148.408 243.931 149.474 244.998 150.786 244.998H168.723C170.035 244.998 171.1 243.931 171.1 242.619V239.632C171.1 238.033 170.395 236.609 169.293 235.613C169.638 234.873 169.852 234.038 169.851 233.143L170.936 198.552C170.961 197.783 171.663 197.16 172.503 197.16C173.343 197.16 174.046 197.784 174.071 198.552L175.154 233.092C175.154 234.008 175.37 234.858 175.719 235.609C174.613 236.605 173.904 238.032 173.904 239.634V242.621C173.904 243.932 174.971 245 176.282 245H194.221C195.532 245 196.599 243.932 196.599 242.587C196.599 239.181 194.552 236.256 191.63 234.942C191.807 234.366 191.917 233.749 191.917 233.092L191.914 189.102H194.436C196.104 189.102 197.697 188.386 198.805 187.137C199.913 185.888 200.434 184.223 200.235 182.568L200.128 181.667C200.285 181.577 200.443 181.484 200.566 181.345C200.888 180.985 201.039 180.502 200.984 180.022L197.352 148.754C197.346 148.71 197.34 148.664 197.33 148.619L197.329 148.615ZM191.16 117.54C190.953 118.876 189.952 119.914 188.891 119.998C189.426 118.279 189.795 116.515 189.959 114.757C190.286 114.913 190.524 115.145 190.677 115.35C191.111 115.926 191.287 116.726 191.16 117.54ZM153.843 117.539C153.717 116.726 153.893 115.926 154.327 115.349C154.479 115.146 154.719 114.914 155.046 114.757C155.21 116.515 155.58 118.279 156.114 119.998C155.044 119.918 154.05 118.877 153.843 117.539ZM157.124 106.376C156.34 106.389 155.667 106.937 155.497 107.701C155.229 108.907 155.091 110.093 155.015 111.261C154.754 111.301 154.498 111.363 154.25 111.441C154.062 110.785 153.932 110.115 153.884 109.432C154.237 109.124 154.659 108.596 154.659 107.779C154.659 107.356 154.547 107.012 154.385 106.732C154.544 106.454 154.659 106.108 154.659 105.682C154.659 102.409 154.923 99.8238 156.211 97.8444C157.62 95.6808 160.347 94.2762 162.752 93.0371L163.081 92.8669C165.398 91.6728 167.79 90.4373 170.35 90.3888L174.164 91.1514C174.273 91.1738 174.386 91.1845 174.496 91.1845C177.529 91.1845 180.396 91.1845 182.618 92.3277C184.889 93.4958 186.456 95.714 188.125 98.2781C189.646 100.613 190.925 102.755 191.117 105.08C190.762 105.39 190.344 105.916 190.344 106.73C190.344 107.152 190.456 107.498 190.617 107.778C190.458 108.056 190.344 108.402 190.344 108.828C190.344 109.659 190.325 110.496 190.27 111.326C190.176 111.306 190.086 111.274 189.99 111.26C189.916 110.095 189.779 108.922 189.504 107.699C189.334 106.935 188.662 106.386 187.879 106.373C182.579 106.287 174.715 103.883 171.255 100.151C170.668 99.5194 169.849 99.1836 168.984 99.251C168.133 99.3101 167.363 99.7476 166.874 100.45C164.427 103.974 162.427 106.289 157.123 106.375L157.124 106.376ZM158.326 112.602C158.326 111.645 158.404 110.685 158.563 109.696C164.149 109.214 166.81 106.395 169.259 102.958C173.345 106.929 180.748 109.289 186.443 109.703C186.601 110.692 186.679 111.649 186.679 112.603C186.679 121.341 180.487 131.501 172.502 131.501C164.518 131.499 158.326 121.341 158.326 112.602ZM176.894 134.087V136.239C175.521 136.434 174.028 136.546 172.501 136.546C170.975 136.546 169.482 136.435 168.108 136.239V134.087C169.504 134.587 170.967 134.889 172.501 134.889C174.034 134.889 175.497 134.587 176.894 134.087ZM153.252 185.707H150.569C149.859 185.707 149.207 185.414 148.736 184.883C148.264 184.352 148.051 183.671 148.136 182.966L148.263 181.908H152.859L152.847 182.139C152.822 182.603 152.989 183.057 153.309 183.396C153.333 183.422 153.368 183.431 153.394 183.455L153.252 185.707ZM167.711 241.603H151.892C152.264 239.728 153.697 238.243 155.531 237.761C156.131 238.12 156.796 238.343 157.512 238.343H165.43C165.943 238.343 166.427 238.218 166.886 238.027C167.375 238.402 167.712 238.965 167.712 239.627L167.711 241.603ZM172.503 193.764C169.807 193.764 167.631 195.818 167.548 198.44L166.463 233.083C166.463 234.224 165.851 234.95 165.428 234.95H157.511C157.089 234.95 156.476 234.223 156.476 233.083L156.472 188.476L156.756 183.921H188.248L188.525 188.369L188.527 233.082C188.527 234.223 187.914 234.949 187.492 234.949H179.575C179.153 234.949 178.541 234.222 178.54 233.029L177.456 198.437C177.374 195.816 175.198 193.762 172.503 193.762L172.503 193.764ZM193.107 241.603H177.291V239.626C177.291 238.963 177.629 238.4 178.119 238.026C178.577 238.217 179.062 238.341 179.575 238.341H187.492C188.222 238.341 188.894 238.123 189.495 237.766C191.31 238.254 192.729 239.727 193.107 241.603ZM196.268 184.884C195.796 185.415 195.144 185.708 194.435 185.708H191.754L191.613 183.453C191.638 183.429 191.672 183.42 191.696 183.395C192.017 183.057 192.184 182.604 192.159 182.138L192.146 181.909H196.74L196.866 182.967C196.951 183.672 196.739 184.352 196.268 184.884ZM191.964 178.52L190.868 158.165C190.817 157.23 190.003 156.497 189.085 156.564C188.15 156.615 187.433 157.413 187.483 158.348L188.678 180.538L156.327 180.535L157.522 158.346C157.573 157.412 156.856 156.613 155.921 156.562C155.015 156.514 154.188 157.229 154.138 158.163L153.041 178.52H147.608L150.996 149.284C152.039 144.032 155.669 139.655 160.472 137.864C160.884 137.712 161.362 137.747 161.815 137.973C164.315 139.22 168.21 139.936 172.5 139.936C176.794 139.936 180.688 139.22 183.187 137.973C183.638 137.748 184.115 137.709 184.531 137.864C189.31 139.648 192.93 143.992 193.992 149.211L197.395 178.52L191.964 178.52ZM172.501 126.207C169.798 126.207 167.681 124.664 167.681 122.695C167.681 121.947 168.288 121.339 169.037 121.339C169.785 121.339 170.393 121.946 170.393 122.695C170.393 122.848 171.096 123.496 172.502 123.496C173.908 123.496 174.612 122.849 174.612 122.695C174.612 121.947 175.219 121.339 175.967 121.339C176.716 121.339 177.323 121.946 177.323 122.695C177.321 124.665 175.205 126.207 172.501 126.207ZM167.382 115.089C167.382 116.436 166.551 117.452 165.449 117.452C164.346 117.452 163.515 116.436 163.515 115.089C163.515 113.741 164.347 112.725 165.449 112.725C166.55 112.726 167.382 113.742 167.382 115.089ZM177.621 115.089C177.621 113.741 178.452 112.725 179.554 112.725C180.657 112.725 181.488 113.741 181.488 115.089C181.488 116.436 180.655 117.452 179.554 117.452C178.452 117.452 177.621 116.436 177.621 115.089ZM135.133 171.772C134.094 166.658 130.464 162.39 125.661 160.633C124.539 160.224 123.309 160.297 122.191 160.843C122.001 160.935 121.793 161.024 121.57 161.106V158.573C124.175 156.74 126.286 153.929 127.647 150.744C127.848 150.792 128.045 150.85 128.253 150.874C128.448 150.895 128.641 150.906 128.831 150.906C131.31 150.906 133.498 149.161 133.946 146.723C134.182 145.437 133.889 144.158 133.118 143.124C133.112 143.117 133.105 143.111 133.099 143.103C133.426 142.055 133.609 140.887 133.609 139.549V136.884C133.609 128.201 126.031 121.136 116.716 121.136H113.339C104.025 121.136 96.447 128.2 96.447 136.884V139.549C96.447 140.888 96.6302 142.056 96.9576 143.104C96.9517 143.111 96.9446 143.117 96.9387 143.124C96.168 144.158 95.8749 145.438 96.1113 146.724C96.5593 149.161 98.7472 150.906 101.226 150.906C101.417 150.906 101.61 150.896 101.804 150.874C102.015 150.851 102.212 150.793 102.413 150.747C103.773 153.931 105.883 156.743 108.488 158.575V161.109C108.265 161.025 108.056 160.937 107.867 160.845C106.748 160.298 105.518 160.224 104.398 160.636C99.5897 162.394 95.9597 166.664 94.9006 171.92L92.0117 196.31C91.955 196.79 92.1063 197.271 92.4278 197.634C92.4963 197.711 92.5909 197.75 92.6713 197.813L92.6086 198.337C92.4384 199.753 92.8841 201.179 93.8321 202.248C94.7789 203.315 96.1406 203.928 97.5674 203.928H99.8085V235.187C99.8085 235.545 99.8582 235.888 99.9303 236.22C97.338 237.262 95.4999 239.792 95.4999 242.754C95.4999 243.99 96.5046 244.995 97.741 244.995H112.017C113.253 244.995 114.258 243.99 114.258 242.754V240.391C114.258 239.147 113.762 238.021 112.968 237.181C113.238 236.594 113.405 235.939 113.405 235.24L114.234 209.725C114.245 209.401 114.608 209.128 115.028 209.128C115.449 209.128 115.813 209.401 115.824 209.725L116.65 235.186C116.65 235.906 116.82 236.576 117.093 237.173C116.296 238.014 115.799 239.143 115.799 240.392V242.754C115.799 243.99 116.804 244.995 118.04 244.995H132.316C133.552 244.995 134.557 243.99 134.557 242.754C134.557 239.793 132.719 237.263 130.126 236.219C130.199 235.886 130.248 235.544 130.248 235.186L130.245 203.927H132.488C133.916 203.927 135.278 203.314 136.224 202.247C137.17 201.178 137.617 199.752 137.447 198.335L137.384 197.812C137.464 197.749 137.559 197.71 137.628 197.633C137.949 197.27 138.101 196.789 138.044 196.309L135.154 171.911C135.149 171.865 135.142 171.819 135.133 171.772L135.133 171.772ZM130.614 146.11C130.462 146.93 129.622 147.535 128.744 147.496C128.984 146.54 129.147 145.57 129.247 144.604C129.301 144.605 129.354 144.607 129.406 144.612C129.824 144.659 130.178 144.849 130.401 145.149C130.543 145.341 130.695 145.662 130.614 146.11ZM99.4458 146.11C99.3642 145.662 99.5155 145.34 99.6585 145.148C99.8819 144.849 100.235 144.657 100.655 144.611C100.707 144.605 100.76 144.603 100.812 144.603C100.911 145.569 101.075 146.537 101.316 147.494C100.436 147.526 99.5959 146.929 99.4458 146.11ZM101.155 138.701C100.965 139.556 100.855 140.401 100.785 141.237C100.618 141.238 100.453 141.224 100.285 141.242C100.187 141.253 100.098 141.286 100.002 141.301C99.9056 140.768 99.8382 140.199 99.8382 139.548V136.883C99.8382 130.068 105.896 124.526 113.342 124.526H116.719C124.164 124.526 130.222 130.069 130.222 136.883V139.548C130.222 140.199 130.156 140.768 130.058 141.3C129.962 141.284 129.874 141.251 129.777 141.241C129.609 141.223 129.443 141.237 129.276 141.236C129.205 140.4 129.096 139.555 128.904 138.7C128.733 137.935 128.062 137.388 127.278 137.375C123.22 137.308 119.389 135.54 117.03 132.642C116.536 132.038 115.806 131.691 115.029 131.691H115.027C114.248 131.692 113.52 132.039 113.027 132.644C110.669 135.54 106.838 137.308 102.779 137.375C101.998 137.389 101.326 137.937 101.155 138.701ZM104.09 142.68C104.09 142.023 104.137 141.365 104.233 140.69C108.466 140.3 112.302 138.462 115.03 135.508C117.758 138.461 121.595 140.3 125.827 140.69C125.922 141.364 125.97 142.023 125.97 142.68C125.97 150.236 120.653 157.379 115.03 157.379C109.407 157.379 104.09 150.235 104.09 142.68H104.09ZM118.182 160.276V161.873C117.189 161.997 116.12 162.065 115.031 162.065C113.941 162.065 112.872 161.997 111.88 161.873V160.276C112.888 160.589 113.94 160.769 115.031 160.769C116.122 160.769 117.173 160.589 118.182 160.276ZM99.9162 200.536H97.5687C97.1029 200.536 96.6762 200.345 96.3677 199.997C96.058 199.648 95.9185 199.202 95.9741 198.739L96.0391 198.203H100.066L99.9162 200.536ZM110.87 241.602H99.0747C99.5073 240.294 100.661 239.318 102.06 239.129C102.529 239.366 103.043 239.505 103.588 239.505H109.632C109.896 239.505 110.155 239.472 110.405 239.412C110.684 239.651 110.872 239.993 110.872 240.389L110.87 241.602ZM115.03 205.736C112.755 205.736 110.918 207.44 110.848 209.614L110.019 235.183C110.019 235.771 109.722 236.093 109.631 236.115L103.591 236.116C103.497 236.095 103.199 235.773 103.199 235.184L103.195 202.312L103.602 196.022H126.461L126.862 202.203V235.182C126.862 235.77 126.564 236.092 126.473 236.113H120.434C120.339 236.092 120.042 235.77 120.04 235.127L119.213 209.612C119.142 207.437 117.305 205.733 115.03 205.733L115.03 205.736ZM130.985 241.602H119.19V240.389C119.19 239.993 119.376 239.651 119.656 239.412C119.906 239.472 120.165 239.505 120.431 239.505H126.473C127.017 239.505 127.532 239.366 128.001 239.129C129.399 239.318 130.552 240.294 130.985 241.602ZM133.692 199.995C133.383 200.342 132.957 200.534 132.491 200.534H130.147L129.997 198.2H134.022L134.087 198.737C134.141 199.199 134.002 199.646 133.692 199.995ZM130.94 194.81C130.998 194.618 131.037 194.418 131.023 194.213L129.996 178.91C129.933 177.976 129.103 177.281 128.192 177.333C127.258 177.395 126.552 178.203 126.615 179.138L127.522 192.633H102.54L103.447 179.138C103.51 178.203 102.804 177.395 101.87 177.333C100.936 177.301 100.129 177.977 100.066 178.91L99.0379 194.213C99.0237 194.418 99.0627 194.617 99.1207 194.81H95.6029L98.246 172.45C99.0497 168.481 101.854 165.17 105.564 163.814C105.896 163.696 106.219 163.807 106.379 163.886C108.412 164.881 111.565 165.451 115.03 165.451C118.494 165.451 121.648 164.881 123.68 163.886C123.841 163.808 124.164 163.694 124.498 163.814C128.184 165.162 130.976 168.44 131.8 172.379L134.457 194.81H130.94ZM110.917 150.712C110.917 149.963 111.524 149.356 112.273 149.356C112.998 149.356 113.589 149.923 113.627 150.639C113.739 150.773 114.213 151.071 115.031 151.071C115.904 151.071 116.387 150.731 116.453 150.614C116.453 149.865 117.05 149.306 117.798 149.306C118.546 149.306 119.143 149.962 119.143 150.712C119.143 152.434 117.337 153.783 115.03 153.783C112.724 153.783 110.917 152.434 110.917 150.712ZM109.415 146.537C108.538 146.537 107.875 145.728 107.875 144.656C107.875 143.584 108.537 142.775 109.415 142.775C110.292 142.775 110.954 143.584 110.954 144.656C110.954 145.728 110.292 146.537 109.415 146.537ZM119.105 144.655C119.105 143.583 119.767 142.774 120.644 142.774C121.523 142.774 122.184 143.583 122.184 144.655C122.184 145.727 121.523 146.536 120.644 146.536C119.767 146.537 119.105 145.728 119.105 144.655ZM117.401 170.309C117.401 171.619 116.339 172.681 115.03 172.681C113.72 172.681 112.658 171.619 112.658 170.309C112.658 169 113.72 167.938 115.03 167.938C116.339 167.938 117.401 169 117.401 170.309ZM117.401 177.089C117.401 178.399 116.339 179.46 115.03 179.46C113.72 179.46 112.658 178.399 112.658 177.089C112.658 175.779 113.72 174.717 115.03 174.717C116.339 174.717 117.401 175.779 117.401 177.089ZM252.988 196.305L250.099 171.908C250.094 171.862 250.086 171.816 250.075 171.768C249.037 166.655 245.407 162.387 240.605 160.63C239.484 160.221 238.251 160.292 237.134 160.839C236.945 160.931 236.736 161.02 236.512 161.104V158.57C237.275 158.035 237.991 157.415 238.661 156.725H243.313C246.116 156.725 248.397 154.444 248.397 151.659L248.436 148.006C248.639 147.601 248.806 147.177 248.89 146.72C249.076 145.708 248.923 144.707 248.479 143.819L248.553 136.879C248.553 128.196 240.975 121.131 231.66 121.131H228.284C218.969 121.131 211.392 128.195 211.392 136.897L211.465 143.82C211.023 144.707 210.869 145.707 211.055 146.718C211.139 147.176 211.306 147.6 211.509 148.003L211.548 151.639C211.548 154.443 213.828 156.724 216.632 156.724H221.283C221.953 157.414 222.67 158.033 223.432 158.57V161.102C223.208 161.018 223 160.931 222.81 160.837C221.692 160.292 220.462 160.217 219.342 160.628C214.535 162.386 210.904 166.656 209.845 171.912L206.957 196.302C206.9 196.782 207.051 197.263 207.374 197.626C207.441 197.703 207.536 197.742 207.615 197.804L207.553 198.328C207.382 199.744 207.827 201.17 208.776 202.239C209.723 203.306 211.085 203.919 212.511 203.919H214.291L213.977 214.91C213.965 215.367 214.138 215.811 214.457 216.14C214.775 216.467 215.213 216.653 215.672 216.653H216.781V235.765C213.232 236.128 210.444 239.1 210.444 242.744C210.444 243.981 211.45 244.986 212.686 244.986H226.961C228.197 244.986 229.203 243.981 229.203 242.744V240.382C229.203 239.28 228.805 238.278 228.166 237.477C228.184 237.285 228.209 237.096 228.209 236.895L228.707 216.652H231.241L231.738 236.854C231.738 237.068 231.763 237.27 231.783 237.474C231.144 238.276 230.746 239.277 230.746 240.38V242.743C230.746 243.979 231.75 244.984 232.987 244.984H247.263C248.5 244.984 249.505 243.979 249.505 242.743C249.505 239.099 246.716 236.127 243.168 235.763L243.167 216.652H244.277C244.735 216.652 245.174 216.466 245.492 216.139C245.811 215.809 245.983 215.365 245.972 214.909L245.658 203.917H247.439C248.865 203.917 250.227 203.305 251.174 202.237C252.122 201.17 252.567 199.745 252.398 198.326L252.336 197.801C252.415 197.74 252.508 197.701 252.576 197.624C252.894 197.267 253.045 196.786 252.988 196.306L252.988 196.305ZM238.624 163.887C238.785 163.808 239.108 163.694 239.439 163.815C239.847 163.964 240.238 164.146 240.624 164.34C240.231 164.872 238.919 165.779 236.69 166.028C235.556 166.157 234.159 165.82 232.954 165.297C235.207 165.068 237.195 164.584 238.624 163.887ZM229.972 162.061C228.883 162.061 227.814 161.994 226.821 161.87V160.274C227.829 160.587 228.88 160.767 229.972 160.767C231.063 160.767 232.115 160.587 233.123 160.274V161.871C232.131 161.994 231.061 162.061 229.972 162.061ZM245.007 151.642C245.007 152.576 244.247 153.337 243.312 153.337H241.26C241.757 152.509 242.205 151.642 242.589 150.742C242.79 150.791 242.988 150.849 243.196 150.872C243.381 150.892 243.567 150.902 243.749 150.902C244.183 150.902 244.605 150.829 245.016 150.723L245.007 151.642ZM245.556 146.108C245.406 146.925 244.578 147.539 243.687 147.493C243.927 146.536 244.091 145.567 244.191 144.6C244.243 144.601 244.296 144.603 244.348 144.609C244.767 144.655 245.121 144.845 245.345 145.145C245.487 145.338 245.639 145.658 245.556 146.108ZM228.284 124.524H231.66C239.106 124.524 245.164 130.068 245.164 136.864L245.117 141.324C244.983 141.298 244.855 141.255 244.719 141.239C244.551 141.221 244.386 141.236 244.218 141.236C244.147 140.4 244.038 139.554 243.847 138.7C243.677 137.935 243.004 137.387 242.222 137.374C238.163 137.308 234.333 135.539 231.973 132.64C231.478 132.037 230.75 131.691 229.972 131.691H229.969C229.191 131.692 228.463 132.039 227.971 132.643C225.576 135.582 221.841 137.307 217.723 137.374C216.94 137.387 216.268 137.936 216.098 138.7C215.906 139.553 215.797 140.397 215.726 141.233C215.56 141.236 215.395 141.221 215.225 141.24C215.088 141.256 214.962 141.298 214.827 141.324L214.78 136.882C214.781 130.066 220.839 124.524 228.284 124.524ZM214.602 145.145C214.824 144.845 215.178 144.655 215.596 144.609C215.648 144.603 215.701 144.6 215.754 144.6C215.853 145.566 216.017 146.536 216.257 147.494C215.368 147.54 214.538 146.925 214.388 146.109C214.306 145.66 214.458 145.337 214.602 145.145ZM216.632 153.337C215.697 153.337 214.937 152.577 214.937 151.624L214.927 150.723C215.34 150.829 215.762 150.902 216.197 150.902C216.379 150.902 216.564 150.892 216.75 150.872C216.958 150.85 217.154 150.791 217.355 150.743C217.739 151.643 218.187 152.51 218.685 153.339L216.632 153.337ZM219.031 142.677C219.031 142.02 219.08 141.362 219.175 140.687C223.407 140.297 227.244 138.459 229.972 135.505C232.699 138.458 236.537 140.297 240.769 140.687C240.865 141.361 240.913 142.02 240.913 142.677C240.913 150.233 235.597 157.376 229.974 157.376C224.35 157.376 219.032 150.232 219.032 142.677H219.031ZM220.508 163.815C220.837 163.694 221.16 163.808 221.322 163.887C222.75 164.584 224.736 165.068 226.988 165.297C225.789 165.814 224.399 166.147 223.256 166.029C221.027 165.78 219.715 164.874 219.321 164.342C219.706 164.146 220.099 163.964 220.508 163.815ZM214.387 200.534H212.51C212.045 200.534 211.617 200.343 211.31 199.995C211 199.646 210.862 199.201 210.918 198.737L210.981 198.2H214.453L214.387 200.534ZM225.814 241.6H214.016C214.499 240.142 215.876 239.088 217.492 239.088H224.514C225.23 239.088 225.813 239.67 225.813 240.387L225.814 241.6ZM220.167 216.657H225.314L224.846 235.731C224.733 235.723 224.627 235.698 224.514 235.698H220.169L220.167 216.657ZM217.415 213.268L218.028 191.853H241.918L242.529 213.268H217.415ZM239.775 216.657V235.697H235.43C235.316 235.697 235.21 235.723 235.099 235.73L234.63 216.656L239.775 216.657ZM245.929 241.6H234.133V240.387C234.133 239.67 234.716 239.088 235.431 239.088H242.455C244.07 239.088 245.445 240.142 245.929 241.6ZM248.634 199.992C248.325 200.34 247.899 200.532 247.435 200.532H245.558L245.491 198.198H248.964L249.028 198.734C249.084 199.197 248.943 199.644 248.634 199.992ZM245.394 194.808L244.943 178.973C244.917 178.036 244.136 177.335 243.201 177.326C242.264 177.354 241.528 178.133 241.554 179.068L241.822 188.462L218.125 188.463L218.393 179.07C218.419 178.134 217.683 177.355 216.747 177.327C215.829 177.322 215.03 178.037 215.004 178.974L214.552 194.809H210.546L213.189 172.449C213.673 170.059 214.891 167.919 216.586 166.29C217.722 167.872 220.003 169.075 222.883 169.397C223.169 169.429 223.459 169.443 223.752 169.443C225.928 169.443 228.27 168.612 229.973 167.56C231.906 168.753 234.66 169.661 237.064 169.397C239.944 169.076 242.224 167.872 243.359 166.291C245.036 167.904 246.248 170.017 246.742 172.379L249.399 194.81L245.394 194.808ZM225.86 150.71C225.86 149.961 226.468 149.354 227.216 149.354C227.94 149.354 228.531 149.921 228.569 150.636C228.682 150.771 229.156 151.069 229.972 151.069C230.848 151.069 231.328 150.729 231.395 150.612C231.395 149.863 231.992 149.304 232.741 149.304C233.49 149.304 234.086 149.96 234.086 150.71C234.086 152.432 232.278 153.781 229.972 153.781C227.665 153.781 225.86 152.432 225.86 150.71ZM224.358 146.535C223.481 146.535 222.817 145.726 222.817 144.654C222.817 143.582 223.479 142.773 224.358 142.773C225.236 142.773 225.897 143.582 225.897 144.654C225.897 145.726 225.235 146.535 224.358 146.535ZM234.048 144.653C234.048 143.58 234.71 142.772 235.587 142.772C236.464 142.772 237.127 143.58 237.127 144.653C237.127 145.725 236.465 146.534 235.587 146.534C234.71 146.535 234.048 145.726 234.048 144.653ZM232.343 173.697C232.343 175.007 231.282 176.069 229.972 176.069C228.662 176.069 227.601 175.007 227.601 173.697C227.601 172.387 228.662 171.325 229.972 171.325C231.282 171.325 232.343 172.387 232.343 173.697ZM232.343 180.477C232.343 181.787 231.282 182.849 229.972 182.849C228.662 182.849 227.601 181.787 227.601 180.477C227.601 179.167 228.662 178.106 229.972 178.106C231.282 178.106 232.343 179.167 232.343 180.477Z" fill="black"/>
</svg>
