<svg width="33" height="33" viewBox="0 0 33 33" fill="none" xmlns="http://www.w3.org/2000/svg">
<circle cx="16.5" cy="16.5" r="16.5" fill="black"/>
<path d="M8.06383 21V10.8182H14.686V12.3643H9.90829V15.1286H14.343V16.6747H9.90829V19.4538H14.7258V21H8.06383ZM24.9349 10.8182V21H23.2943L18.4967 14.0646H18.4122V21H16.5677V10.8182H18.2183L23.0109 17.7585H23.1004V10.8182H24.9349Z" fill="white"/>
<path fill-rule="evenodd" clip-rule="evenodd" d="M16.5 33C25.6127 33 33 25.6127 33 16.5C33 7.38729 25.6127 0 16.5 0C7.38729 0 0 7.38729 0 16.5C0 25.6127 7.38729 33 16.5 33ZM16.5 31.8999C25.0052 31.8999 31.8998 25.0053 31.8998 16.5001C31.8998 7.99496 25.0052 1.10031 16.5 1.10031C7.99484 1.10031 1.1002 7.99496 1.1002 16.5001C1.1002 25.0053 7.99484 31.8999 16.5 31.8999Z" fill="white"/>
<path fill-rule="evenodd" clip-rule="evenodd" d="M16.5 33C25.6127 33 33 25.6127 33 16.5C33 7.38729 25.6127 0 16.5 0C7.38729 0 0 7.38729 0 16.5C0 25.6127 7.38729 33 16.5 33ZM16.5 31.8999C25.0052 31.8999 31.8998 25.0053 31.8998 16.5001C31.8998 7.99496 25.0052 1.10031 16.5 1.10031C7.99484 1.10031 1.1002 7.99496 1.1002 16.5001C1.1002 25.0053 7.99484 31.8999 16.5 31.8999Z" fill="white"/>
</svg>
