<svg width="59" height="59" viewBox="0 0 59 59" fill="none" xmlns="http://www.w3.org/2000/svg">
<path d="M10.0638 26V15.8182H16.686V17.3643H11.9083V20.1286H16.343V21.6747H11.9083V24.4538H16.7258V26H10.0638ZM26.9349 15.8182V26H25.2943L20.4967 19.0646H20.4122V26H18.5677V15.8182H20.2183L25.0109 22.7585H25.1004V15.8182H26.9349Z" fill="white"/>
<path fill-rule="evenodd" clip-rule="evenodd" d="M29.5 59C45.7924 59 59 45.7924 59 29.5C59 13.2076 45.7924 0 29.5 0C13.2076 0 0 13.2076 0 29.5C0 45.7924 13.2076 59 29.5 59ZM29.5 57.0332C44.7062 57.0332 57.033 44.7064 57.033 29.5002C57.033 14.294 44.7062 1.96723 29.5 1.96723C14.2938 1.96723 1.96702 14.294 1.96702 29.5002C1.96702 44.7064 14.2938 57.0332 29.5 57.0332Z" fill="white"/>
<path fill-rule="evenodd" clip-rule="evenodd" d="M29.5 59C45.7924 59 59 45.7924 59 29.5C59 13.2076 45.7924 0 29.5 0C13.2076 0 0 13.2076 0 29.5C0 45.7924 13.2076 59 29.5 59ZM29.5 57.0332C44.7062 57.0332 57.033 44.7064 57.033 29.5002C57.033 14.294 44.7062 1.96723 29.5 1.96723C14.2938 1.96723 1.96702 14.294 1.96702 29.5002C1.96702 44.7064 14.2938 57.0332 29.5 57.0332Z" fill="white"/>
<path fill-rule="evenodd" clip-rule="evenodd" d="M44.3051 12.1425L46.5596 11.3455L45.2255 13.2199L47.2984 14.3684L44.8971 14.5633L45.2275 16.7924L43.567 15.1614L41.9065 16.7924L42.237 14.5633L39.8356 14.3684L41.9086 13.2199L40.5749 11.3455L42.829 12.1425L43.567 10L44.3051 12.1425ZM53.2686 24.3392L54.0066 26.4817L56.2612 25.6847L54.9271 27.5592L57 28.7076L54.5986 28.9026L54.9295 31.1321L53.2686 29.5006L51.6081 31.1321L51.939 28.9026L49.5372 28.7076L51.6105 27.5592L50.2764 25.6847L52.5306 26.4817L53.2686 24.3392ZM35.7314 20.5657L36.4694 22.7082L38.7236 21.9111L37.3899 23.7856L39.4628 24.9341L37.0614 25.129L37.3919 27.3585L35.7314 25.7271L34.0709 27.3585L34.4014 25.129L32 24.9341L34.0729 23.7856L32.7388 21.9111L34.9934 22.7082L35.7314 20.5657ZM43.5672 43.2076L44.3052 45.3497L46.5598 44.5526L45.2257 46.4271L47.2986 47.5759L44.8972 47.7709L45.2277 50L43.5672 48.369L41.9067 50L42.2372 47.7709L39.8358 47.5759L41.9087 46.4271L40.575 44.5526L42.8292 45.3497L43.5672 43.2076ZM45.9924 33.7733L46.4535 35.0884H48.0451L46.7885 35.8916L47.2491 37.1697L45.9925 36.3665L44.7363 37.1332L45.1969 35.8916L43.9403 35.0884H45.4902L45.9924 33.7733Z" fill="white"/>
<path fill-rule="evenodd" clip-rule="evenodd" d="M14.9998 35L16.5826 39.4159L21.4156 37.7729L18.5558 41.6366L23 44.0035L17.8516 44.4054L18.5604 49L15 45.6381L11.4396 49L12.1488 44.4054L7 44.0035L11.4447 41.6366L8.58443 37.7729L13.4177 39.4159L14.9998 35ZM14.9998 38.8107L15.7574 40.9248L18.0712 40.1382L16.7022 41.9879L18.8297 43.1207L16.3647 43.3135L16.7042 45.5129L14.9998 43.9033L13.2954 45.5129L13.6349 43.3135L11.1699 43.1207L13.2978 41.9879L11.9288 40.1382L14.2421 40.9248L14.9998 38.8107Z" fill="white"/>
</svg>
