<svg width="428" height="258" viewBox="0 0 428 258" fill="none" xmlns="http://www.w3.org/2000/svg">
<path d="M-0.399047 85.7618C-0.399047 85.7618 62.4698 114.157 104.139 121.203C148.244 128.661 174.61 134.639 217.825 120.525C223.227 118.761 228.861 116.351 234.592 113.478C295.295 83.0461 363.354 61.2043 427.593 83.2085L428.617 254.722L0.624168 257.275L-0.399047 85.7618Z" fill="#B8EDFF"/>
<path d="M250.2 126.984L270.807 101.22C271.022 100.949 271.114 100.622 271.064 100.307C271.033 100.154 270.969 100.01 270.874 99.881C270.588 99.4792 270.038 99.2859 269.486 99.3928L257.718 101.648C256.868 96.6653 252.38 78.2426 231.866 69.9241C211.463 61.6571 191.808 69.719 188.08 71.4189C187.484 71.6743 187.156 72.2548 187.301 72.7972C187.436 73.3378 187.989 73.7011 188.632 73.6734C199.76 73.2729 210.415 76.4415 218.579 82.5809C226.451 88.6599 231.382 97.1422 232.476 106.487L220.573 108.769C220.021 108.877 219.578 109.26 219.45 109.74C219.321 110.22 219.532 110.702 219.985 110.962L248.276 127.353L248.277 127.353C248.891 127.706 249.749 127.542 250.198 126.985L250.2 126.984Z" fill="#FF7252"/>
</svg>
