<svg width="290" height="74" viewBox="0 0 290 74" fill="none" xmlns="http://www.w3.org/2000/svg">
<path d="M31.3262 31.8819C30.8468 29.391 29.499 27.528 27.2828 26.2927C25.0666 25.0574 22.4213 24.551 19.347 24.7735C17.0991 24.9362 15.1585 25.4421 13.5252 26.2914C11.9084 27.1395 10.6751 28.234 9.82509 29.5749C8.99164 30.9146 8.63355 32.3944 8.75083 34.0142C8.84897 35.3695 9.25565 36.5115 9.97088 37.44C10.7014 38.3508 11.6025 39.0915 12.6739 39.6619C13.7442 40.2158 14.8562 40.6587 16.0101 40.9906C17.1628 41.3059 18.2192 41.5535 19.1793 41.7332L24.4368 42.7484C25.7842 42.9998 27.2899 43.3727 28.954 43.867C30.6347 44.3602 32.2571 45.0818 33.8213 46.032C35.4008 46.9644 36.7374 48.2135 37.831 49.7793C38.9247 51.3451 39.5577 53.318 39.7301 55.6982C39.9287 58.4419 39.3892 60.9733 38.1116 63.2922C36.8505 65.6099 34.8953 67.5209 32.2461 69.0253C29.6134 70.5284 26.3467 71.4212 22.4459 71.7035C18.8096 71.9666 15.6184 71.6078 12.8723 70.6268C10.1427 69.6447 7.94158 68.1591 6.26895 66.17C4.61284 64.1797 3.58509 61.8033 3.18569 59.0408L9.53272 58.5815C9.83684 60.4868 10.5963 62.0269 11.8113 63.2018C13.0415 64.3589 14.5465 65.1804 16.3263 65.6664C18.1214 66.1346 20.0273 66.2958 22.0438 66.1498C24.3909 65.98 26.4707 65.4473 28.2834 64.5518C30.0949 63.6398 31.4965 62.4583 32.488 61.0075C33.4784 59.5401 33.9066 57.8808 33.7725 56.0296C33.6505 54.3437 33.0801 53.0059 32.0613 52.0163C31.0426 51.0266 29.7407 50.2568 28.1557 49.7069C26.5706 49.157 24.8676 48.6988 23.0466 48.3321L16.6695 46.9992C12.62 46.1458 9.36165 44.745 6.89444 42.7968C4.42723 40.8486 3.06976 38.1638 2.82203 34.7423C2.61618 31.8994 3.20525 29.3645 4.58924 27.1375C5.98856 24.8929 7.9515 23.0893 10.4781 21.7267C13.02 20.3465 15.9107 19.5391 19.1504 19.3047C22.4231 19.0678 25.3746 19.444 28.005 20.4333C30.6342 21.4061 32.7656 22.8469 34.3992 24.7558C36.0493 26.6634 37.0084 28.8952 37.2766 31.4512L31.3262 31.8819ZM89.169 30.8857L83.0203 31.3307C82.5286 29.5885 81.7798 28.0808 80.7738 26.8078C79.7843 25.5336 78.612 24.4886 77.2569 23.6728C75.9172 22.8393 74.4537 22.2474 72.8665 21.897C71.2793 21.5467 69.6427 21.4325 67.9568 21.5545C64.8825 21.777 62.1536 22.7554 59.7703 24.4898C57.4035 26.2229 55.594 28.6551 54.342 31.7863C53.1065 34.9163 52.6479 38.6796 52.9662 43.0763C53.2845 47.4729 54.2805 51.131 55.954 54.0504C57.6441 56.9687 59.785 59.115 62.3768 60.4893C64.9852 61.8623 67.8265 62.4376 70.9009 62.2151C72.5868 62.0931 74.1899 61.7445 75.71 61.1692C77.2302 60.594 78.5938 59.8057 79.8007 58.8046C81.0229 57.7856 82.0318 56.5745 82.8274 55.171C83.6384 53.7499 84.1622 52.1501 84.399 50.3718L90.5477 49.9268C90.2728 52.5553 89.598 54.9386 88.5232 57.0767C87.4485 59.2147 86.0541 61.0686 84.3401 62.6382C82.6248 64.1912 80.6619 65.4216 78.4513 66.3293C76.2573 67.2357 73.8793 67.7817 71.3173 67.9671C66.9868 68.2805 63.059 67.5014 59.534 65.6298C56.0089 63.7581 53.1382 60.9419 50.9219 57.1811C48.7056 53.4203 47.4036 48.8622 47.0159 43.5069C46.6281 38.1516 47.2599 33.4536 48.9114 29.4129C50.5628 25.3721 52.9978 22.1719 56.2165 19.8122C59.4352 17.4525 63.2098 16.1159 67.5403 15.8025C70.1023 15.6171 72.5341 15.8149 74.8359 16.396C77.1542 16.976 79.2745 17.9191 81.1968 19.2255C83.1178 20.5154 84.7642 22.1409 86.1357 24.1019C87.506 26.0464 88.5171 28.3077 89.169 30.8857ZM101.632 65.0753L97.9559 14.2991L104.105 13.8541L105.742 36.4653L132.816 34.5059L131.179 11.8946L137.327 11.4496L141.004 62.2258L134.855 62.6708L133.211 39.9604L106.137 41.9198L107.781 64.6303L101.632 65.0753ZM194.318 32.8462C194.706 38.2015 194.074 42.8995 192.422 46.9402C190.771 50.981 188.336 54.1812 185.117 56.5409C181.899 58.9006 178.124 60.2372 173.793 60.5506C169.463 60.864 165.535 60.0849 162.01 58.2132C158.485 56.3416 155.614 53.5254 153.398 49.7646C151.182 46.0037 149.88 41.4457 149.492 36.0904C149.104 30.7351 149.736 26.0371 151.387 21.9963C153.039 17.9556 155.474 14.7554 158.693 12.3957C161.911 10.036 165.686 8.69941 170.016 8.38599C174.347 8.07258 178.275 8.85169 181.8 10.7233C185.325 12.595 188.196 15.4112 190.412 19.172C192.628 22.9328 193.93 27.4909 194.318 32.8462ZM188.368 33.2768C188.049 28.8802 187.045 25.2227 185.355 22.3045C183.681 19.385 181.54 17.2387 178.932 15.8656C176.34 14.4914 173.507 13.9155 170.433 14.138C167.359 14.3605 164.63 15.3389 162.246 17.0732C159.88 18.8064 158.07 21.2385 156.818 24.3698C155.583 27.4998 155.124 31.2631 155.442 35.6597C155.761 40.0564 156.757 43.7144 158.43 46.6339C160.12 49.5522 162.261 51.6985 164.853 53.0727C167.461 54.4458 170.303 55.0211 173.377 54.7986C176.451 54.5761 179.172 53.5983 181.539 51.8651C183.922 50.1308 185.731 47.6986 186.967 44.5686C188.219 41.4374 188.686 37.6735 188.368 33.2768ZM247.499 28.9973C247.887 34.3526 247.255 39.0506 245.604 43.0913C243.952 47.1321 241.517 50.3323 238.298 52.692C235.08 55.0517 231.305 56.3883 226.975 56.7017C222.644 57.0151 218.716 56.236 215.191 54.3643C211.666 52.4927 208.796 49.6765 206.579 45.9157C204.363 42.1548 203.061 37.5968 202.673 32.2415C202.285 26.8862 202.917 22.1882 204.569 18.1474C206.22 14.1067 208.655 10.9065 211.874 8.54678C215.093 6.18707 218.867 4.85051 223.198 4.5371C227.528 4.22369 231.456 5.0028 234.981 6.87444C238.506 8.74608 241.377 11.5623 243.593 15.3231C245.809 19.0839 247.111 23.642 247.499 28.9973ZM241.549 29.4279C241.23 25.0313 240.226 21.3738 238.536 18.4556C236.863 15.5361 234.722 13.3898 232.113 12.0167C229.522 10.6425 226.688 10.0666 223.614 10.2891C220.54 10.5116 217.811 11.49 215.428 13.2243C213.061 14.9575 211.251 17.3896 209.999 20.5209C208.764 23.6509 208.305 27.4142 208.624 31.8108C208.942 36.2075 209.938 39.8655 211.611 42.785C213.301 45.7033 215.442 47.8496 218.034 49.2238C220.643 50.5969 223.484 51.1722 226.558 50.9497C229.633 50.7272 232.353 49.7494 234.72 48.0162C237.103 46.2819 238.913 43.8497 240.148 40.7197C241.4 37.5885 241.867 33.8246 241.549 29.4279ZM259.676 53.6371L256 2.86096L262.148 2.41596L265.43 47.7377L289.033 46.0294L289.428 51.4839L259.676 53.6371Z" fill="#00598B" fill-opacity="0.1"/>
</svg>
