<svg width="1440" height="426" viewBox="0 0 1440 426" fill="none" xmlns="http://www.w3.org/2000/svg">
<path d="M1440 351.278C1440 351.278 1229.05 292.355 1089 277.415C940.763 261.603 852.175 249.037 706.5 277.415C639.844 290.401 562.542 321.06 497.124 351.178C401.381 395.256 294.382 413.858 191.283 391.941L-6.53239e-06 351.278L-3.72421e-05 1.81236e-05L1440 -0.000107765L1440 351.278Z" fill="#B8EDFF"/>
<path d="M808.666 320.84L833.346 278.053C833.603 277.603 833.666 277.098 833.52 276.643C833.441 276.424 833.313 276.225 833.144 276.056C832.629 275.526 831.771 275.364 830.978 275.647L814.071 281.643C811.686 274.46 800.883 248.207 768.642 240.528C736.577 232.901 709.307 249.272 704.172 252.631C703.347 253.143 702.993 254.077 703.331 254.846C703.653 255.616 704.553 256.029 705.498 255.843C721.879 252.736 738.364 255.02 751.834 262.262C764.858 269.482 774.073 280.922 777.804 294.506L760.7 300.572C759.909 300.856 759.34 301.523 759.258 302.263C759.175 303.003 759.597 303.669 760.325 303.952L805.902 321.821L805.903 321.821C806.892 322.204 808.124 321.767 808.663 320.842L808.666 320.84Z" fill="#FF7252"/>
</svg>
