<svg width="387" height="226" viewBox="0 0 387 226" fill="none" xmlns="http://www.w3.org/2000/svg">
<path d="M30.8837 164.084L36.4178 161.367L51.2754 191.624C52.8093 194.747 53.4426 197.898 53.1751 201.075C52.9151 204.23 51.8007 207.168 49.8317 209.888C47.8554 212.594 45.0747 214.826 41.4894 216.586C37.9042 218.346 34.4368 219.18 31.0873 219.089C27.7304 218.983 24.7167 218.071 22.0459 216.355C19.3828 214.616 17.2842 212.185 15.7502 209.061L0.892597 178.805L6.42667 176.088L21.0651 205.898C22.1608 208.129 23.6269 209.874 25.4634 211.133C27.2926 212.376 29.3594 213.051 31.6637 213.157C33.9756 213.241 36.4035 212.658 38.9474 211.409C41.4913 210.161 43.4371 208.596 44.7848 206.717C46.1252 204.822 46.8553 202.774 46.9749 200.574C47.1021 198.352 46.6179 196.125 45.5222 193.894L30.8837 164.084ZM83.7084 138.155L106.148 183.852L100.793 186.481L58.2706 162.825L57.8243 163.044L75.443 198.923L69.909 201.64L47.4692 155.943L52.8247 153.314L95.4799 177.015L95.9262 176.796L78.2636 140.828L83.7084 138.155ZM100.316 130.004L122.756 175.7L117.222 178.417L94.7821 132.72L100.316 130.004ZM113.287 123.637L145.744 155.445L146.279 155.182L140.957 110.055L146.759 107.208L152.418 161.141L146.705 163.945L107.485 126.485L113.287 123.637ZM176.317 149.41L153.877 103.714L181.458 90.1758L183.869 95.0846L161.822 105.906L169.404 121.347L190.023 111.226L192.433 116.135L171.815 126.255L179.441 141.785L201.845 130.788L204.255 135.697L176.317 149.41ZM213.873 130.976L191.433 85.2798L206.875 77.7003C210.445 75.9478 213.675 75.1192 216.565 75.2145C219.448 75.2949 221.958 76.121 224.097 77.693C226.235 79.2649 227.965 81.3971 229.287 84.0895C230.609 86.7819 231.231 89.4396 231.153 92.0625C231.075 94.6853 230.19 97.1504 228.498 99.4576C226.799 101.75 224.179 103.765 220.638 105.503L208.142 111.637L205.688 106.639L218.006 100.592C220.445 99.395 222.234 98.0741 223.371 96.6299C224.523 95.1784 225.112 93.6338 225.139 91.9962C225.173 90.3364 224.741 88.5917 223.842 86.762C222.944 84.9324 221.816 83.5012 220.46 82.4686C219.104 81.436 217.492 80.9165 215.624 80.9103C213.749 80.8891 211.576 81.4846 209.107 82.6968L199.378 87.4723L219.407 128.26L213.873 130.976ZM225.304 99.89L246.631 114.898L240.204 118.052L219.056 102.957L225.304 99.89ZM262.23 64.7076C260.852 62.578 258.904 61.3557 256.386 61.0409C253.869 60.726 251.226 61.2477 248.459 62.6058C246.436 63.5989 244.826 64.7951 243.63 66.1944C242.449 67.5864 241.716 69.0632 241.43 70.6248C241.16 72.1791 241.382 73.6852 242.098 75.1429C242.697 76.3627 243.502 77.269 244.513 77.8619C245.532 78.4326 246.645 78.7816 247.852 78.909C249.052 79.0216 250.249 79.0155 251.444 78.8908C252.63 78.7513 253.703 78.585 254.66 78.3919L259.915 77.3632C261.259 77.0914 262.795 76.873 264.523 76.7077C266.266 76.5352 268.041 76.5964 269.847 76.8912C271.661 77.1639 273.368 77.8211 274.969 78.863C276.57 79.9048 277.896 81.4967 278.948 83.6388C280.161 86.108 280.609 88.657 280.294 91.2855C279.993 93.9068 278.897 96.411 277.005 98.7983C275.127 101.178 272.433 103.23 268.922 104.953C265.649 106.56 262.556 107.423 259.642 107.542C256.743 107.654 254.146 107.102 251.849 105.884C249.568 104.66 247.724 102.842 246.318 100.43L252.031 97.6262C253.027 99.2787 254.309 100.422 255.875 101.056C257.45 101.668 259.153 101.865 260.985 101.649C262.825 101.411 264.653 100.846 266.468 99.9551C268.58 98.9182 270.309 97.6451 271.654 96.1357C272.991 94.6114 273.848 92.991 274.224 91.2744C274.592 89.543 274.367 87.8442 273.549 86.1782C272.804 84.6609 271.774 83.6344 270.458 83.0986C269.143 82.5628 267.647 82.3369 265.971 82.421C264.296 82.5051 262.545 82.7183 260.719 83.0607L254.307 84.2143C250.233 84.9404 246.686 84.8625 243.669 83.9808C240.651 83.099 238.386 81.1186 236.874 78.0394C235.618 75.4809 235.214 72.91 235.662 70.3269C236.118 67.7216 237.262 65.3141 239.094 63.1042C240.934 60.8722 243.311 59.0406 246.227 57.6094C249.173 56.1636 252.05 55.4065 254.86 55.3381C257.662 55.2549 260.178 55.7921 262.408 56.9497C264.653 58.1 266.379 59.8097 267.586 62.0788L262.23 64.7076ZM277.233 43.1656L299.673 88.8623L294.139 91.5786L271.699 45.8819L277.233 43.1656ZM288.241 43.8548L285.83 38.9459L320.106 22.1222L322.516 27.031L308.146 34.0847L328.175 74.8726L322.641 77.5889L302.612 36.801L288.241 43.8548ZM324.719 19.8576L331.057 16.747L354.206 31.8568L354.742 31.5939L356.942 4.04152L363.279 0.930875L359.959 35.9008L369.206 54.7328L363.672 57.4491L354.424 38.6171L324.719 19.8576Z" fill="#00598B" fill-opacity="0.1"/>
</svg>
